<mxfile host="app.diagrams.net" modified="2023-04-21T02:03:57.597Z" agent="Mozilla/5.0 (Windows NT 10.0; WOW64) AppleWebKit/537.36 (KHTML, like Gecko) Chrome/94.0.4606.71 Safari/537.36 Core/1.94.192.400 QQBrowser/11.5.5250.400" etag="0dO6QLUxTw9kox3GPM-V" version="21.2.1" type="github">
  <diagram name="第 1 页" id="NtPN5tHjqjk46rIK51VQ">
    <mxGraphModel dx="1181" dy="643" grid="1" gridSize="10" guides="1" tooltips="1" connect="1" arrows="1" fold="1" page="1" pageScale="1" pageWidth="827" pageHeight="1169" math="0" shadow="0">
      <root>
        <mxCell id="0" />
        <mxCell id="1" parent="0" />
        <mxCell id="xgtPqTEJbgmkO_SBP-QT-1" value="用户特征" style="rounded=0;whiteSpace=wrap;html=1;" vertex="1" parent="1">
          <mxGeometry x="210" y="700" width="100" height="20" as="geometry" />
        </mxCell>
        <mxCell id="xgtPqTEJbgmkO_SBP-QT-2" value="物品特征" style="rounded=0;whiteSpace=wrap;html=1;" vertex="1" parent="1">
          <mxGeometry x="310" y="700" width="100" height="20" as="geometry" />
        </mxCell>
        <mxCell id="xgtPqTEJbgmkO_SBP-QT-3" value="....." style="rounded=0;whiteSpace=wrap;html=1;horizontal=1;verticalAlign=middle;labelPosition=center;verticalLabelPosition=middle;align=center;fontStyle=1;fontSize=15;" vertex="1" parent="1">
          <mxGeometry x="410" y="700" width="100" height="20" as="geometry" />
        </mxCell>
        <mxCell id="xgtPqTEJbgmkO_SBP-QT-4" value="&amp;nbsp;&lt;br&gt;&lt;table&gt;&lt;tbody&gt;&lt;tr&gt;&lt;td&gt;&lt;br&gt;&lt;/td&gt;&lt;td&gt;&lt;br&gt;&lt;/td&gt;&lt;td&gt;&lt;br&gt;&lt;/td&gt;&lt;td&gt;&lt;br&gt;&lt;/td&gt;&lt;td&gt;&lt;br&gt;&lt;/td&gt;&lt;td&gt;&lt;br&gt;&lt;/td&gt;&lt;td&gt;&lt;br&gt;&lt;/td&gt;&lt;/tr&gt;&lt;/tbody&gt;&lt;/table&gt;" style="rounded=0;whiteSpace=wrap;html=1;fontSize=18;fillColor=#d5e8d4;strokeColor=#82b366;" vertex="1" parent="1">
          <mxGeometry x="300" y="640" width="140" height="20" as="geometry" />
        </mxCell>
        <mxCell id="xgtPqTEJbgmkO_SBP-QT-5" value="" style="whiteSpace=wrap;html=1;aspect=fixed;fontSize=18;labelBackgroundColor=#97D077;rounded=0;fillColor=#d5e8d4;strokeColor=#82b366;" vertex="1" parent="1">
          <mxGeometry x="280" y="640" width="20" height="20" as="geometry" />
        </mxCell>
        <mxCell id="xgtPqTEJbgmkO_SBP-QT-6" value="" style="whiteSpace=wrap;html=1;aspect=fixed;fontSize=18;rounded=0;fillColor=#d5e8d4;strokeColor=#82b366;" vertex="1" parent="1">
          <mxGeometry x="300" y="640" width="20" height="20" as="geometry" />
        </mxCell>
        <mxCell id="xgtPqTEJbgmkO_SBP-QT-7" value="" style="whiteSpace=wrap;html=1;aspect=fixed;fontSize=18;labelBackgroundColor=default;rounded=0;fillColor=#d5e8d4;strokeColor=#82b366;" vertex="1" parent="1">
          <mxGeometry x="320" y="640" width="20" height="20" as="geometry" />
        </mxCell>
        <mxCell id="xgtPqTEJbgmkO_SBP-QT-8" value="" style="whiteSpace=wrap;html=1;aspect=fixed;fontSize=18;rounded=0;fillColor=#d5e8d4;strokeColor=#82b366;" vertex="1" parent="1">
          <mxGeometry x="340" y="640" width="20" height="20" as="geometry" />
        </mxCell>
        <mxCell id="xgtPqTEJbgmkO_SBP-QT-9" value="" style="whiteSpace=wrap;html=1;aspect=fixed;fontSize=18;rounded=0;fillColor=#d5e8d4;strokeColor=#82b366;" vertex="1" parent="1">
          <mxGeometry x="360" y="640" width="20" height="20" as="geometry" />
        </mxCell>
        <mxCell id="xgtPqTEJbgmkO_SBP-QT-10" value="" style="whiteSpace=wrap;html=1;aspect=fixed;fontSize=18;rounded=0;fillColor=#d5e8d4;strokeColor=#82b366;" vertex="1" parent="1">
          <mxGeometry x="380" y="640" width="20" height="20" as="geometry" />
        </mxCell>
        <mxCell id="xgtPqTEJbgmkO_SBP-QT-11" value="" style="whiteSpace=wrap;html=1;aspect=fixed;fontSize=18;rounded=0;fillColor=#d5e8d4;strokeColor=#82b366;" vertex="1" parent="1">
          <mxGeometry x="400" y="640" width="20" height="20" as="geometry" />
        </mxCell>
        <mxCell id="xgtPqTEJbgmkO_SBP-QT-12" value="" style="endArrow=classic;html=1;rounded=0;sketch=0;fontColor=#46495D;strokeColor=#000000;fillColor=#B2C9AB;" edge="1" parent="1">
          <mxGeometry width="50" height="50" relative="1" as="geometry">
            <mxPoint x="360" y="640.0000000000001" as="sourcePoint" />
            <mxPoint x="490" y="600.0000000000001" as="targetPoint" />
          </mxGeometry>
        </mxCell>
        <mxCell id="xgtPqTEJbgmkO_SBP-QT-13" value="" style="endArrow=classic;html=1;rounded=0;sketch=0;fontColor=#000000;strokeColor=#000000;fillColor=#B2C9AB;" edge="1" parent="1">
          <mxGeometry width="50" height="50" relative="1" as="geometry">
            <mxPoint x="360" y="640.0000000000001" as="sourcePoint" />
            <mxPoint x="220" y="600.0000000000001" as="targetPoint" />
            <Array as="points" />
          </mxGeometry>
        </mxCell>
        <mxCell id="xgtPqTEJbgmkO_SBP-QT-14" value="Expert1" style="rounded=0;whiteSpace=wrap;html=1;labelBackgroundColor=#FFFFFF;sketch=0;fontColor=#000000;strokeColor=#000000;fillColor=#FFFFFF;fontSize=16;" vertex="1" parent="1">
          <mxGeometry x="170" y="560" width="100" height="40" as="geometry" />
        </mxCell>
        <mxCell id="xgtPqTEJbgmkO_SBP-QT-15" value="Shared Expert" style="rounded=0;whiteSpace=wrap;html=1;labelBackgroundColor=#FFFFFF;sketch=0;fontColor=#000000;strokeColor=#000000;fillColor=#FFFFFF;fontSize=15;" vertex="1" parent="1">
          <mxGeometry x="310" y="560" width="100" height="40" as="geometry" />
        </mxCell>
        <mxCell id="xgtPqTEJbgmkO_SBP-QT-16" value="ExpertN" style="rounded=0;whiteSpace=wrap;html=1;labelBackgroundColor=#FFFFFF;sketch=0;fontColor=#000000;strokeColor=#000000;fillColor=#FFFFFF;fontSize=15;" vertex="1" parent="1">
          <mxGeometry x="450" y="560" width="100" height="40" as="geometry" />
        </mxCell>
        <mxCell id="xgtPqTEJbgmkO_SBP-QT-17" value="..." style="text;html=1;align=center;verticalAlign=middle;resizable=0;points=[];autosize=1;strokeColor=none;fillColor=none;fontColor=#000000;fontSize=18;fontStyle=1;rounded=0;" vertex="1" parent="1">
          <mxGeometry x="415" y="565" width="30" height="30" as="geometry" />
        </mxCell>
        <mxCell id="xgtPqTEJbgmkO_SBP-QT-18" value="" style="endArrow=classic;html=1;rounded=0;sketch=0;fontSize=18;fontColor=#000000;strokeColor=#000000;fillColor=#B2C9AB;entryX=0.5;entryY=1;entryDx=0;entryDy=0;" edge="1" parent="1" target="xgtPqTEJbgmkO_SBP-QT-15">
          <mxGeometry width="50" height="50" relative="1" as="geometry">
            <mxPoint x="360" y="640.0000000000001" as="sourcePoint" />
            <mxPoint x="760" y="470" as="targetPoint" />
          </mxGeometry>
        </mxCell>
        <mxCell id="xgtPqTEJbgmkO_SBP-QT-19" style="edgeStyle=orthogonalEdgeStyle;sketch=0;orthogonalLoop=1;jettySize=auto;html=1;fontSize=19;fontColor=#000000;strokeColor=#000000;fillColor=#B2C9AB;exitX=0;exitY=0.5;exitDx=0;exitDy=0;entryX=0;entryY=0.5;entryDx=0;entryDy=0;rounded=0;" edge="1" parent="1" source="xgtPqTEJbgmkO_SBP-QT-5" target="xgtPqTEJbgmkO_SBP-QT-23">
          <mxGeometry relative="1" as="geometry">
            <mxPoint x="270" y="480" as="targetPoint" />
            <mxPoint x="160" y="630" as="sourcePoint" />
            <Array as="points">
              <mxPoint x="110" y="650" />
              <mxPoint x="110" y="480" />
            </Array>
          </mxGeometry>
        </mxCell>
        <mxCell id="xgtPqTEJbgmkO_SBP-QT-20" value="" style="rounded=1;whiteSpace=wrap;html=1;labelBackgroundColor=#FFFFFF;sketch=0;fontSize=18;fontColor=#000000;strokeColor=#000000;fillColor=none;dashed=1;strokeWidth=2;" vertex="1" parent="1">
          <mxGeometry x="160" y="545" width="400" height="70" as="geometry" />
        </mxCell>
        <mxCell id="xgtPqTEJbgmkO_SBP-QT-21" value="" style="endArrow=classic;html=1;sketch=0;fontSize=18;fontColor=#000000;strokeColor=#000000;fillColor=#B2C9AB;exitX=0.81;exitY=0;exitDx=0;exitDy=0;exitPerimeter=0;" edge="1" parent="1" source="xgtPqTEJbgmkO_SBP-QT-20">
          <mxGeometry width="50" height="50" relative="1" as="geometry">
            <mxPoint x="370" y="530" as="sourcePoint" />
            <mxPoint x="370" y="500" as="targetPoint" />
          </mxGeometry>
        </mxCell>
        <mxCell id="xgtPqTEJbgmkO_SBP-QT-22" value="" style="endArrow=classic;html=1;sketch=0;fontSize=18;fontColor=#000000;strokeColor=#000000;fillColor=#B2C9AB;exitX=0.189;exitY=-0.041;exitDx=0;exitDy=0;exitPerimeter=0;" edge="1" parent="1" source="xgtPqTEJbgmkO_SBP-QT-20">
          <mxGeometry width="50" height="50" relative="1" as="geometry">
            <mxPoint x="370" y="500" as="sourcePoint" />
            <mxPoint x="350" y="500" as="targetPoint" />
          </mxGeometry>
        </mxCell>
        <mxCell id="xgtPqTEJbgmkO_SBP-QT-23" value="&lt;font style=&quot;font-size: 19px&quot;&gt;MultigateMerge&lt;/font&gt;" style="rounded=0;whiteSpace=wrap;html=1;labelBackgroundColor=#FFFFFF;sketch=0;fontSize=18;fontColor=#000000;strokeColor=#000000;fillColor=default;fontStyle=0" vertex="1" parent="1">
          <mxGeometry x="280" y="460" width="160" height="40" as="geometry" />
        </mxCell>
        <mxCell id="xgtPqTEJbgmkO_SBP-QT-24" value="" style="endArrow=classic;html=1;rounded=0;sketch=0;fontSize=19;fontColor=#000000;strokeColor=#000000;fillColor=#B2C9AB;entryX=0.5;entryY=1;entryDx=0;entryDy=0;exitX=0.938;exitY=0;exitDx=0;exitDy=0;exitPerimeter=0;" edge="1" parent="1" source="xgtPqTEJbgmkO_SBP-QT-23" target="xgtPqTEJbgmkO_SBP-QT-26">
          <mxGeometry width="50" height="50" relative="1" as="geometry">
            <mxPoint x="430" y="450" as="sourcePoint" />
            <mxPoint x="450" y="410" as="targetPoint" />
          </mxGeometry>
        </mxCell>
        <mxCell id="xgtPqTEJbgmkO_SBP-QT-25" value="" style="ellipse;whiteSpace=wrap;html=1;aspect=fixed;labelBackgroundColor=#FFFFFF;sketch=0;fontSize=19;strokeColor=#36393d;fillColor=#cce5ff;" vertex="1" parent="1">
          <mxGeometry x="280" y="380" width="30" height="30" as="geometry" />
        </mxCell>
        <mxCell id="xgtPqTEJbgmkO_SBP-QT-26" value="" style="ellipse;whiteSpace=wrap;html=1;aspect=fixed;labelBackgroundColor=#FFFFFF;sketch=0;fontSize=19;fontColor=#000000;strokeColor=#000000;fillColor=#FFB570;" vertex="1" parent="1">
          <mxGeometry x="415" y="380" width="30" height="30" as="geometry" />
        </mxCell>
        <mxCell id="xgtPqTEJbgmkO_SBP-QT-27" value="PCTR" style="text;html=1;align=center;verticalAlign=middle;resizable=0;points=[];autosize=1;strokeColor=none;fillColor=none;fontSize=18;fontColor=#000000;" vertex="1" parent="1">
          <mxGeometry x="220" y="380" width="60" height="30" as="geometry" />
        </mxCell>
        <mxCell id="xgtPqTEJbgmkO_SBP-QT-28" value="PCVR" style="text;html=1;align=center;verticalAlign=middle;resizable=0;points=[];autosize=1;strokeColor=none;fillColor=none;fontSize=18;fontColor=#000000;" vertex="1" parent="1">
          <mxGeometry x="440" y="380" width="70" height="30" as="geometry" />
        </mxCell>
        <mxCell id="xgtPqTEJbgmkO_SBP-QT-29" value="" style="endArrow=classic;html=1;rounded=0;sketch=0;fontSize=18;fontColor=#000000;strokeColor=#000000;fillColor=#B2C9AB;entryX=0.5;entryY=1;entryDx=0;entryDy=0;" edge="1" parent="1" target="xgtPqTEJbgmkO_SBP-QT-25">
          <mxGeometry width="50" height="50" relative="1" as="geometry">
            <mxPoint x="295" y="460" as="sourcePoint" />
            <mxPoint x="300" y="420" as="targetPoint" />
          </mxGeometry>
        </mxCell>
        <mxCell id="xgtPqTEJbgmkO_SBP-QT-30" value="" style="endArrow=classic;html=1;rounded=0;sketch=0;fontSize=18;fontColor=#000000;strokeColor=#000000;fillColor=#B2C9AB;" edge="1" parent="1">
          <mxGeometry width="50" height="50" relative="1" as="geometry">
            <mxPoint x="310" y="380" as="sourcePoint" />
            <mxPoint x="370" y="340" as="targetPoint" />
          </mxGeometry>
        </mxCell>
        <mxCell id="xgtPqTEJbgmkO_SBP-QT-31" value="" style="endArrow=classic;html=1;rounded=0;sketch=0;fontSize=18;fontColor=#000000;strokeColor=#000000;fillColor=#B2C9AB;exitX=0.5;exitY=0;exitDx=0;exitDy=0;" edge="1" parent="1" source="xgtPqTEJbgmkO_SBP-QT-26">
          <mxGeometry width="50" height="50" relative="1" as="geometry">
            <mxPoint x="400" y="390" as="sourcePoint" />
            <mxPoint x="370" y="340" as="targetPoint" />
          </mxGeometry>
        </mxCell>
        <mxCell id="xgtPqTEJbgmkO_SBP-QT-32" value="教师模型输出购买率&lt;br&gt;PCTCVR" style="text;html=1;align=center;verticalAlign=middle;resizable=0;points=[];autosize=1;strokeColor=none;fillColor=none;fontSize=18;fontColor=#000000;" vertex="1" parent="1">
          <mxGeometry x="285" y="250" width="180" height="50" as="geometry" />
        </mxCell>
        <mxCell id="xgtPqTEJbgmkO_SBP-QT-33" value="" style="endArrow=none;html=1;rounded=0;fontSize=18;" edge="1" parent="1">
          <mxGeometry width="50" height="50" relative="1" as="geometry">
            <mxPoint x="359.4999999999998" y="690" as="sourcePoint" />
            <mxPoint x="359.9999999999998" y="689.9494949494951" as="targetPoint" />
            <Array as="points" />
          </mxGeometry>
        </mxCell>
        <mxCell id="xgtPqTEJbgmkO_SBP-QT-34" value="" style="endArrow=classic;html=1;rounded=0;sketch=0;fontSize=15;fontColor=#000000;strokeColor=#000000;fillColor=#B2C9AB;exitX=0.5;exitY=0;exitDx=0;exitDy=0;entryX=0;entryY=1;entryDx=0;entryDy=0;entryPerimeter=0;" edge="1" parent="1" source="xgtPqTEJbgmkO_SBP-QT-2" target="xgtPqTEJbgmkO_SBP-QT-9">
          <mxGeometry width="50" height="50" relative="1" as="geometry">
            <mxPoint x="340" y="710" as="sourcePoint" />
            <mxPoint x="360" y="670" as="targetPoint" />
          </mxGeometry>
        </mxCell>
        <mxCell id="xgtPqTEJbgmkO_SBP-QT-35" value="Emeddingt" style="text;html=1;align=center;verticalAlign=middle;resizable=0;points=[];autosize=1;strokeColor=none;fillColor=none;fontSize=16;fontColor=#000000;" vertex="1" parent="1">
          <mxGeometry x="260" y="670" width="90" height="20" as="geometry" />
        </mxCell>
        <mxCell id="xgtPqTEJbgmkO_SBP-QT-36" value="&lt;font style=&quot;font-size: 11px;&quot;&gt;用户特征&lt;/font&gt;" style="rounded=0;whiteSpace=wrap;html=1;labelBackgroundColor=#FFFFFF;sketch=0;fontSize=11;fontColor=#000000;strokeColor=#000000;fillColor=default;" vertex="1" parent="1">
          <mxGeometry x="650" y="700" width="100" height="20" as="geometry" />
        </mxCell>
        <mxCell id="xgtPqTEJbgmkO_SBP-QT-37" value="物品特征" style="rounded=0;whiteSpace=wrap;html=1;labelBackgroundColor=#FFFFFF;sketch=0;fontSize=12;fontColor=#000000;strokeColor=#000000;fillColor=default;" vertex="1" parent="1">
          <mxGeometry x="750" y="700" width="100" height="20" as="geometry" />
        </mxCell>
        <mxCell id="xgtPqTEJbgmkO_SBP-QT-38" value="......" style="rounded=0;whiteSpace=wrap;html=1;labelBackgroundColor=#FFFFFF;sketch=0;fontSize=15;fontColor=#000000;strokeColor=#000000;fillColor=default;fontStyle=1" vertex="1" parent="1">
          <mxGeometry x="850" y="700" width="100" height="20" as="geometry" />
        </mxCell>
        <mxCell id="xgtPqTEJbgmkO_SBP-QT-39" value="" style="endArrow=classic;html=1;rounded=0;sketch=0;fontSize=15;fontColor=#000000;strokeColor=#000000;fillColor=#B2C9AB;exitX=0.605;exitY=-0.15;exitDx=0;exitDy=0;exitPerimeter=0;entryX=0.5;entryY=1;entryDx=0;entryDy=0;" edge="1" parent="1" source="xgtPqTEJbgmkO_SBP-QT-37" target="xgtPqTEJbgmkO_SBP-QT-43">
          <mxGeometry width="50" height="50" relative="1" as="geometry">
            <mxPoint x="810" y="690" as="sourcePoint" />
            <mxPoint x="810" y="670" as="targetPoint" />
          </mxGeometry>
        </mxCell>
        <mxCell id="xgtPqTEJbgmkO_SBP-QT-40" value="" style="whiteSpace=wrap;html=1;aspect=fixed;labelBackgroundColor=#FFFFFF;sketch=0;fontSize=15;strokeColor=#82b366;fillColor=#d5e8d4;" vertex="1" parent="1">
          <mxGeometry x="740" y="640" width="20" height="20" as="geometry" />
        </mxCell>
        <mxCell id="xgtPqTEJbgmkO_SBP-QT-41" value="" style="whiteSpace=wrap;html=1;aspect=fixed;labelBackgroundColor=#FFFFFF;sketch=0;fontSize=15;strokeColor=#82b366;fillColor=#d5e8d4;" vertex="1" parent="1">
          <mxGeometry x="760" y="640" width="20" height="20" as="geometry" />
        </mxCell>
        <mxCell id="xgtPqTEJbgmkO_SBP-QT-42" value="" style="whiteSpace=wrap;html=1;aspect=fixed;labelBackgroundColor=#FFFFFF;sketch=0;fontSize=15;strokeColor=#82b366;fillColor=#d5e8d4;" vertex="1" parent="1">
          <mxGeometry x="780" y="640" width="20" height="20" as="geometry" />
        </mxCell>
        <mxCell id="xgtPqTEJbgmkO_SBP-QT-43" value="" style="whiteSpace=wrap;html=1;aspect=fixed;labelBackgroundColor=#FFFFFF;sketch=0;fontSize=15;strokeColor=#82b366;fillColor=#d5e8d4;" vertex="1" parent="1">
          <mxGeometry x="800" y="640" width="20" height="20" as="geometry" />
        </mxCell>
        <mxCell id="xgtPqTEJbgmkO_SBP-QT-44" value="" style="whiteSpace=wrap;html=1;aspect=fixed;labelBackgroundColor=#FFFFFF;sketch=0;fontSize=15;strokeColor=#82b366;fillColor=#d5e8d4;" vertex="1" parent="1">
          <mxGeometry x="840" y="640" width="20" height="20" as="geometry" />
        </mxCell>
        <mxCell id="xgtPqTEJbgmkO_SBP-QT-45" value="" style="whiteSpace=wrap;html=1;aspect=fixed;labelBackgroundColor=#FFFFFF;sketch=0;fontSize=15;strokeColor=#82b366;fillColor=#d5e8d4;" vertex="1" parent="1">
          <mxGeometry x="860" y="640" width="20" height="20" as="geometry" />
        </mxCell>
        <mxCell id="xgtPqTEJbgmkO_SBP-QT-48" value="" style="whiteSpace=wrap;html=1;aspect=fixed;labelBackgroundColor=#FFFFFF;sketch=0;fontSize=15;strokeColor=#82b366;fillColor=#d5e8d4;" vertex="1" parent="1">
          <mxGeometry x="820" y="640" width="20" height="20" as="geometry" />
        </mxCell>
        <mxCell id="xgtPqTEJbgmkO_SBP-QT-49" value="Emedding" style="text;html=1;align=center;verticalAlign=middle;resizable=0;points=[];autosize=1;strokeColor=none;fillColor=none;fontSize=15;fontColor=#000000;" vertex="1" parent="1">
          <mxGeometry x="710" y="670" width="80" height="20" as="geometry" />
        </mxCell>
        <mxCell id="xgtPqTEJbgmkO_SBP-QT-70" value="学生模型蒸馏学习购买率&lt;br&gt;PCTCVR" style="text;html=1;align=center;verticalAlign=middle;resizable=0;points=[];autosize=1;strokeColor=none;fillColor=none;fontSize=18;fontColor=#000000;" vertex="1" parent="1">
          <mxGeometry x="680" y="250" width="210" height="50" as="geometry" />
        </mxCell>
        <mxCell id="xgtPqTEJbgmkO_SBP-QT-79" value="KL Loss" style="text;html=1;align=center;verticalAlign=middle;resizable=0;points=[];autosize=1;strokeColor=#d6b656;fillColor=#fff2cc;fontSize=18;" vertex="1" parent="1">
          <mxGeometry x="500" y="310" width="80" height="30" as="geometry" />
        </mxCell>
        <mxCell id="xgtPqTEJbgmkO_SBP-QT-81" value="Level 1" style="text;html=1;align=center;verticalAlign=middle;resizable=0;points=[];autosize=1;strokeColor=none;fillColor=none;fontSize=18;fontColor=#000000;dashed=1;" vertex="1" parent="1">
          <mxGeometry x="590" y="555" width="80" height="30" as="geometry" />
        </mxCell>
        <mxCell id="xgtPqTEJbgmkO_SBP-QT-86" value="" style="endArrow=classic;html=1;rounded=0;dashed=1;sketch=0;fontSize=18;fontColor=#000000;strokeColor=#000000;fillColor=#B2C9AB;entryX=-0.056;entryY=0.55;entryDx=0;entryDy=0;entryPerimeter=0;" edge="1" parent="1" target="xgtPqTEJbgmkO_SBP-QT-79">
          <mxGeometry width="50" height="50" relative="1" as="geometry">
            <mxPoint x="390" y="327" as="sourcePoint" />
            <mxPoint x="440" y="330" as="targetPoint" />
          </mxGeometry>
        </mxCell>
        <mxCell id="xgtPqTEJbgmkO_SBP-QT-126" value="" style="endArrow=classic;html=1;rounded=0;sketch=0;fontSize=18;fontColor=#000000;strokeColor=#000000;fillColor=#B2C9AB;entryX=1.017;entryY=0.484;entryDx=0;entryDy=0;entryPerimeter=0;exitX=0;exitY=0.5;exitDx=0;exitDy=0;" edge="1" parent="1" source="xgtPqTEJbgmkO_SBP-QT-232" target="xgtPqTEJbgmkO_SBP-QT-79">
          <mxGeometry width="50" height="50" relative="1" as="geometry">
            <mxPoint x="759.9999999999866" y="324.9999999999999" as="sourcePoint" />
            <mxPoint x="755" y="350" as="targetPoint" />
          </mxGeometry>
        </mxCell>
        <mxCell id="xgtPqTEJbgmkO_SBP-QT-59" value="" style="whiteSpace=wrap;html=1;aspect=fixed;labelBackgroundColor=#FFFFFF;sketch=0;fontSize=15;strokeColor=#b85450;fillColor=#f8cecc;" vertex="1" parent="1">
          <mxGeometry x="820" y="560" width="20" height="20" as="geometry" />
        </mxCell>
        <mxCell id="xgtPqTEJbgmkO_SBP-QT-60" value="" style="whiteSpace=wrap;html=1;aspect=fixed;labelBackgroundColor=#FFFFFF;sketch=0;fontSize=15;strokeColor=#b85450;fillColor=#f8cecc;" vertex="1" parent="1">
          <mxGeometry x="840" y="560" width="20" height="20" as="geometry" />
        </mxCell>
        <mxCell id="xgtPqTEJbgmkO_SBP-QT-61" value="" style="whiteSpace=wrap;html=1;aspect=fixed;labelBackgroundColor=#FFFFFF;sketch=0;fontSize=15;strokeColor=#b85450;fillColor=#f8cecc;" vertex="1" parent="1">
          <mxGeometry x="860" y="560" width="20" height="20" as="geometry" />
        </mxCell>
        <mxCell id="xgtPqTEJbgmkO_SBP-QT-63" value="" style="whiteSpace=wrap;html=1;aspect=fixed;labelBackgroundColor=#FFFFFF;sketch=0;fontSize=15;strokeColor=#b85450;fillColor=#f8cecc;" vertex="1" parent="1">
          <mxGeometry x="800" y="560" width="20" height="20" as="geometry" />
        </mxCell>
        <mxCell id="xgtPqTEJbgmkO_SBP-QT-138" value="" style="group" vertex="1" connectable="0" parent="1">
          <mxGeometry x="670" y="560" width="120" height="20" as="geometry" />
        </mxCell>
        <mxCell id="xgtPqTEJbgmkO_SBP-QT-53" value="" style="whiteSpace=wrap;html=1;aspect=fixed;labelBackgroundColor=#FFFFFF;sketch=0;fontSize=15;strokeColor=#d79b00;fillColor=#ffe6cc;" vertex="1" parent="xgtPqTEJbgmkO_SBP-QT-138">
          <mxGeometry x="40" width="20" height="20" as="geometry" />
        </mxCell>
        <mxCell id="xgtPqTEJbgmkO_SBP-QT-54" value="" style="whiteSpace=wrap;html=1;aspect=fixed;labelBackgroundColor=#FFFFFF;sketch=0;fontSize=15;strokeColor=#d79b00;fillColor=#ffe6cc;" vertex="1" parent="xgtPqTEJbgmkO_SBP-QT-138">
          <mxGeometry x="60" width="20" height="20" as="geometry" />
        </mxCell>
        <mxCell id="xgtPqTEJbgmkO_SBP-QT-55" value="" style="whiteSpace=wrap;html=1;aspect=fixed;labelBackgroundColor=#FFFFFF;sketch=0;fontSize=15;strokeColor=#d79b00;fillColor=#ffe6cc;" vertex="1" parent="xgtPqTEJbgmkO_SBP-QT-138">
          <mxGeometry x="80" width="20" height="20" as="geometry" />
        </mxCell>
        <mxCell id="xgtPqTEJbgmkO_SBP-QT-56" value="" style="whiteSpace=wrap;html=1;aspect=fixed;labelBackgroundColor=#FFFFFF;sketch=0;fontSize=15;strokeColor=#d79b00;fillColor=#ffe6cc;" vertex="1" parent="xgtPqTEJbgmkO_SBP-QT-138">
          <mxGeometry x="100" width="20" height="20" as="geometry" />
        </mxCell>
        <mxCell id="xgtPqTEJbgmkO_SBP-QT-130" value="" style="whiteSpace=wrap;html=1;aspect=fixed;labelBackgroundColor=#FFFFFF;sketch=0;fontSize=15;strokeColor=#d79b00;fillColor=#ffe6cc;" vertex="1" parent="xgtPqTEJbgmkO_SBP-QT-138">
          <mxGeometry width="20" height="20" as="geometry" />
        </mxCell>
        <mxCell id="xgtPqTEJbgmkO_SBP-QT-131" value="" style="whiteSpace=wrap;html=1;aspect=fixed;labelBackgroundColor=#FFFFFF;sketch=0;fontSize=15;strokeColor=#d79b00;fillColor=#ffe6cc;" vertex="1" parent="xgtPqTEJbgmkO_SBP-QT-138">
          <mxGeometry x="20" width="20" height="20" as="geometry" />
        </mxCell>
        <mxCell id="xgtPqTEJbgmkO_SBP-QT-139" value="" style="group" vertex="1" connectable="0" parent="1">
          <mxGeometry x="680" y="510" width="100" height="20" as="geometry" />
        </mxCell>
        <mxCell id="xgtPqTEJbgmkO_SBP-QT-90" value="" style="group" vertex="1" connectable="0" parent="xgtPqTEJbgmkO_SBP-QT-139">
          <mxGeometry x="40" width="60" height="20" as="geometry" />
        </mxCell>
        <mxCell id="xgtPqTEJbgmkO_SBP-QT-91" value="" style="group" vertex="1" connectable="0" parent="xgtPqTEJbgmkO_SBP-QT-90">
          <mxGeometry width="60" height="20" as="geometry" />
        </mxCell>
        <mxCell id="xgtPqTEJbgmkO_SBP-QT-92" value="" style="whiteSpace=wrap;html=1;aspect=fixed;labelBackgroundColor=#FFFFFF;sketch=0;fontSize=15;strokeColor=#d79b00;fillColor=#ffe6cc;" vertex="1" parent="xgtPqTEJbgmkO_SBP-QT-91">
          <mxGeometry x="-20" width="20" height="20" as="geometry" />
        </mxCell>
        <mxCell id="xgtPqTEJbgmkO_SBP-QT-94" value="" style="whiteSpace=wrap;html=1;aspect=fixed;labelBackgroundColor=#FFFFFF;sketch=0;fontSize=15;strokeColor=#d79b00;fillColor=#ffe6cc;" vertex="1" parent="xgtPqTEJbgmkO_SBP-QT-91">
          <mxGeometry width="20" height="20" as="geometry" />
        </mxCell>
        <mxCell id="xgtPqTEJbgmkO_SBP-QT-93" value="" style="whiteSpace=wrap;html=1;aspect=fixed;labelBackgroundColor=#FFFFFF;sketch=0;fontSize=15;strokeColor=#d79b00;fillColor=#ffe6cc;" vertex="1" parent="xgtPqTEJbgmkO_SBP-QT-91">
          <mxGeometry x="20" width="20" height="20" as="geometry" />
        </mxCell>
        <mxCell id="xgtPqTEJbgmkO_SBP-QT-134" value="" style="whiteSpace=wrap;html=1;aspect=fixed;labelBackgroundColor=#FFFFFF;sketch=0;fontSize=15;strokeColor=#d79b00;fillColor=#ffe6cc;" vertex="1" parent="xgtPqTEJbgmkO_SBP-QT-91">
          <mxGeometry x="40" width="20" height="20" as="geometry" />
        </mxCell>
        <mxCell id="xgtPqTEJbgmkO_SBP-QT-137" value="" style="whiteSpace=wrap;html=1;aspect=fixed;labelBackgroundColor=#FFFFFF;sketch=0;fontSize=15;strokeColor=#d79b00;fillColor=#ffe6cc;" vertex="1" parent="xgtPqTEJbgmkO_SBP-QT-139">
          <mxGeometry width="20" height="20" as="geometry" />
        </mxCell>
        <mxCell id="xgtPqTEJbgmkO_SBP-QT-140" value="" style="group" vertex="1" connectable="0" parent="1">
          <mxGeometry x="810" y="510" width="60" height="20" as="geometry" />
        </mxCell>
        <mxCell id="xgtPqTEJbgmkO_SBP-QT-136" value="" style="whiteSpace=wrap;html=1;aspect=fixed;labelBackgroundColor=#FFFFFF;sketch=0;fontSize=15;strokeColor=#b85450;fillColor=#f8cecc;" vertex="1" parent="xgtPqTEJbgmkO_SBP-QT-140">
          <mxGeometry x="40" width="20" height="20" as="geometry" />
        </mxCell>
        <mxCell id="xgtPqTEJbgmkO_SBP-QT-97" value="" style="whiteSpace=wrap;html=1;aspect=fixed;labelBackgroundColor=#FFFFFF;sketch=0;fontSize=15;strokeColor=#b85450;fillColor=#f8cecc;" vertex="1" parent="xgtPqTEJbgmkO_SBP-QT-140">
          <mxGeometry width="20" height="20" as="geometry" />
        </mxCell>
        <mxCell id="xgtPqTEJbgmkO_SBP-QT-98" value="" style="whiteSpace=wrap;html=1;aspect=fixed;labelBackgroundColor=#FFFFFF;sketch=0;fontSize=15;strokeColor=#b85450;fillColor=#f8cecc;" vertex="1" parent="xgtPqTEJbgmkO_SBP-QT-140">
          <mxGeometry x="20" width="20" height="20" as="geometry" />
        </mxCell>
        <mxCell id="xgtPqTEJbgmkO_SBP-QT-143" value="Level 2" style="text;html=1;align=center;verticalAlign=middle;resizable=0;points=[];autosize=1;strokeColor=none;fillColor=none;fontSize=18;fontColor=#000000;dashed=1;" vertex="1" parent="1">
          <mxGeometry x="590" y="505" width="80" height="30" as="geometry" />
        </mxCell>
        <mxCell id="xgtPqTEJbgmkO_SBP-QT-145" value="" style="endArrow=classic;html=1;rounded=0;sketch=0;fontSize=15;fontColor=#000000;strokeColor=#000000;fillColor=#B2C9AB;exitX=0;exitY=0;exitDx=0;exitDy=0;entryX=0.5;entryY=1;entryDx=0;entryDy=0;" edge="1" parent="1" source="xgtPqTEJbgmkO_SBP-QT-54" target="xgtPqTEJbgmkO_SBP-QT-94">
          <mxGeometry width="50" height="50" relative="1" as="geometry">
            <mxPoint x="729.92" y="555" as="sourcePoint" />
            <mxPoint x="729.92" y="538" as="targetPoint" />
          </mxGeometry>
        </mxCell>
        <mxCell id="xgtPqTEJbgmkO_SBP-QT-146" value="" style="endArrow=classic;html=1;rounded=0;sketch=0;fontSize=15;fontColor=#000000;strokeColor=#000000;fillColor=#B2C9AB;exitX=0;exitY=0;exitDx=0;exitDy=0;" edge="1" parent="1" source="xgtPqTEJbgmkO_SBP-QT-60">
          <mxGeometry width="50" height="50" relative="1" as="geometry">
            <mxPoint x="839.84" y="555" as="sourcePoint" />
            <mxPoint x="840" y="530" as="targetPoint" />
          </mxGeometry>
        </mxCell>
        <mxCell id="xgtPqTEJbgmkO_SBP-QT-147" value="" style="endArrow=classic;html=1;rounded=0;sketch=0;fontSize=15;fontColor=#000000;strokeColor=#000000;fillColor=#B2C9AB;dashed=1;entryX=0.5;entryY=1;entryDx=0;entryDy=0;" edge="1" parent="1" target="xgtPqTEJbgmkO_SBP-QT-98">
          <mxGeometry width="50" height="50" relative="1" as="geometry">
            <mxPoint x="730" y="560" as="sourcePoint" />
            <mxPoint x="830" y="540" as="targetPoint" />
          </mxGeometry>
        </mxCell>
        <mxCell id="xgtPqTEJbgmkO_SBP-QT-148" value="" style="group" vertex="1" connectable="0" parent="1">
          <mxGeometry x="680" y="480" width="100" height="20" as="geometry" />
        </mxCell>
        <mxCell id="xgtPqTEJbgmkO_SBP-QT-151" value="" style="whiteSpace=wrap;html=1;aspect=fixed;labelBackgroundColor=#FFFFFF;sketch=0;fontSize=15;strokeColor=#d79b00;fillColor=#ffe6cc;" vertex="1" parent="1">
          <mxGeometry x="710" y="460" width="20" height="20" as="geometry" />
        </mxCell>
        <mxCell id="xgtPqTEJbgmkO_SBP-QT-152" value="" style="whiteSpace=wrap;html=1;aspect=fixed;labelBackgroundColor=#FFFFFF;sketch=0;fontSize=15;strokeColor=#d79b00;fillColor=#ffe6cc;" vertex="1" parent="1">
          <mxGeometry x="730" y="460" width="20" height="20" as="geometry" />
        </mxCell>
        <mxCell id="xgtPqTEJbgmkO_SBP-QT-153" value="" style="whiteSpace=wrap;html=1;aspect=fixed;labelBackgroundColor=#FFFFFF;sketch=0;fontSize=15;strokeColor=#d79b00;fillColor=#ffe6cc;" vertex="1" parent="1">
          <mxGeometry x="750" y="460" width="20" height="20" as="geometry" />
        </mxCell>
        <mxCell id="xgtPqTEJbgmkO_SBP-QT-155" value="" style="whiteSpace=wrap;html=1;aspect=fixed;labelBackgroundColor=#FFFFFF;sketch=0;fontSize=15;strokeColor=#d79b00;fillColor=#ffe6cc;" vertex="1" parent="1">
          <mxGeometry x="690" y="460" width="20" height="20" as="geometry" />
        </mxCell>
        <mxCell id="xgtPqTEJbgmkO_SBP-QT-156" value="" style="endArrow=classic;html=1;rounded=0;sketch=0;fontSize=15;fontColor=#000000;strokeColor=#000000;fillColor=#B2C9AB;exitX=0.5;exitY=0;exitDx=0;exitDy=0;entryX=0;entryY=1;entryDx=0;entryDy=0;" edge="1" parent="1" source="xgtPqTEJbgmkO_SBP-QT-94" target="xgtPqTEJbgmkO_SBP-QT-152">
          <mxGeometry width="50" height="50" relative="1" as="geometry">
            <mxPoint x="790" y="470" as="sourcePoint" />
            <mxPoint x="790" y="440" as="targetPoint" />
          </mxGeometry>
        </mxCell>
        <mxCell id="xgtPqTEJbgmkO_SBP-QT-157" value="" style="group" vertex="1" connectable="0" parent="1">
          <mxGeometry x="810" y="460" width="60" height="20" as="geometry" />
        </mxCell>
        <mxCell id="xgtPqTEJbgmkO_SBP-QT-158" value="" style="whiteSpace=wrap;html=1;aspect=fixed;labelBackgroundColor=#FFFFFF;sketch=0;fontSize=15;strokeColor=#b85450;fillColor=#f8cecc;" vertex="1" parent="xgtPqTEJbgmkO_SBP-QT-157">
          <mxGeometry x="40" width="20" height="20" as="geometry" />
        </mxCell>
        <mxCell id="xgtPqTEJbgmkO_SBP-QT-159" value="" style="whiteSpace=wrap;html=1;aspect=fixed;labelBackgroundColor=#FFFFFF;sketch=0;fontSize=15;strokeColor=#b85450;fillColor=#f8cecc;" vertex="1" parent="xgtPqTEJbgmkO_SBP-QT-157">
          <mxGeometry width="20" height="20" as="geometry" />
        </mxCell>
        <mxCell id="xgtPqTEJbgmkO_SBP-QT-160" value="" style="whiteSpace=wrap;html=1;aspect=fixed;labelBackgroundColor=#FFFFFF;sketch=0;fontSize=15;strokeColor=#b85450;fillColor=#f8cecc;" vertex="1" parent="xgtPqTEJbgmkO_SBP-QT-157">
          <mxGeometry x="20" width="20" height="20" as="geometry" />
        </mxCell>
        <mxCell id="xgtPqTEJbgmkO_SBP-QT-161" value="" style="endArrow=classic;html=1;rounded=0;sketch=0;fontSize=15;fontColor=#000000;strokeColor=#000000;fillColor=#B2C9AB;exitX=0.5;exitY=0;exitDx=0;exitDy=0;entryX=0.5;entryY=1;entryDx=0;entryDy=0;" edge="1" parent="1" source="xgtPqTEJbgmkO_SBP-QT-98" target="xgtPqTEJbgmkO_SBP-QT-160">
          <mxGeometry width="50" height="50" relative="1" as="geometry">
            <mxPoint x="899.83" y="510" as="sourcePoint" />
            <mxPoint x="899.83" y="480" as="targetPoint" />
          </mxGeometry>
        </mxCell>
        <mxCell id="xgtPqTEJbgmkO_SBP-QT-162" value="Level 3" style="text;html=1;align=center;verticalAlign=middle;resizable=0;points=[];autosize=1;strokeColor=none;fillColor=none;fontSize=18;fontColor=#000000;dashed=1;" vertex="1" parent="1">
          <mxGeometry x="590" y="455" width="80" height="30" as="geometry" />
        </mxCell>
        <mxCell id="xgtPqTEJbgmkO_SBP-QT-164" value="" style="whiteSpace=wrap;html=1;aspect=fixed;labelBackgroundColor=#FFFFFF;sketch=0;fontSize=15;strokeColor=#b85450;fillColor=#f8cecc;" vertex="1" parent="1">
          <mxGeometry x="1070" y="560" width="20" height="20" as="geometry" />
        </mxCell>
        <mxCell id="xgtPqTEJbgmkO_SBP-QT-165" value="" style="whiteSpace=wrap;html=1;aspect=fixed;labelBackgroundColor=#FFFFFF;sketch=0;fontSize=15;strokeColor=#b85450;fillColor=#f8cecc;" vertex="1" parent="1">
          <mxGeometry x="1090" y="560" width="20" height="20" as="geometry" />
        </mxCell>
        <mxCell id="xgtPqTEJbgmkO_SBP-QT-166" value="" style="whiteSpace=wrap;html=1;aspect=fixed;labelBackgroundColor=#FFFFFF;sketch=0;fontSize=15;strokeColor=#b85450;fillColor=#f8cecc;" vertex="1" parent="1">
          <mxGeometry x="1110" y="560" width="20" height="20" as="geometry" />
        </mxCell>
        <mxCell id="xgtPqTEJbgmkO_SBP-QT-167" value="" style="whiteSpace=wrap;html=1;aspect=fixed;labelBackgroundColor=#FFFFFF;sketch=0;fontSize=15;strokeColor=#b85450;fillColor=#f8cecc;" vertex="1" parent="1">
          <mxGeometry x="1050" y="560" width="20" height="20" as="geometry" />
        </mxCell>
        <mxCell id="xgtPqTEJbgmkO_SBP-QT-168" value="" style="group" vertex="1" connectable="0" parent="1">
          <mxGeometry x="920" y="560" width="120" height="20" as="geometry" />
        </mxCell>
        <mxCell id="xgtPqTEJbgmkO_SBP-QT-169" value="" style="whiteSpace=wrap;html=1;aspect=fixed;labelBackgroundColor=#FFFFFF;sketch=0;fontSize=15;strokeColor=#d79b00;fillColor=#ffe6cc;" vertex="1" parent="xgtPqTEJbgmkO_SBP-QT-168">
          <mxGeometry x="40" width="20" height="20" as="geometry" />
        </mxCell>
        <mxCell id="xgtPqTEJbgmkO_SBP-QT-170" value="" style="whiteSpace=wrap;html=1;aspect=fixed;labelBackgroundColor=#FFFFFF;sketch=0;fontSize=15;strokeColor=#d79b00;fillColor=#ffe6cc;" vertex="1" parent="xgtPqTEJbgmkO_SBP-QT-168">
          <mxGeometry x="60" width="20" height="20" as="geometry" />
        </mxCell>
        <mxCell id="xgtPqTEJbgmkO_SBP-QT-171" value="" style="whiteSpace=wrap;html=1;aspect=fixed;labelBackgroundColor=#FFFFFF;sketch=0;fontSize=15;strokeColor=#d79b00;fillColor=#ffe6cc;" vertex="1" parent="xgtPqTEJbgmkO_SBP-QT-168">
          <mxGeometry x="80" width="20" height="20" as="geometry" />
        </mxCell>
        <mxCell id="xgtPqTEJbgmkO_SBP-QT-172" value="" style="whiteSpace=wrap;html=1;aspect=fixed;labelBackgroundColor=#FFFFFF;sketch=0;fontSize=15;strokeColor=#d79b00;fillColor=#ffe6cc;" vertex="1" parent="xgtPqTEJbgmkO_SBP-QT-168">
          <mxGeometry x="100" width="20" height="20" as="geometry" />
        </mxCell>
        <mxCell id="xgtPqTEJbgmkO_SBP-QT-173" value="" style="whiteSpace=wrap;html=1;aspect=fixed;labelBackgroundColor=#FFFFFF;sketch=0;fontSize=15;strokeColor=#d79b00;fillColor=#ffe6cc;" vertex="1" parent="xgtPqTEJbgmkO_SBP-QT-168">
          <mxGeometry width="20" height="20" as="geometry" />
        </mxCell>
        <mxCell id="xgtPqTEJbgmkO_SBP-QT-174" value="" style="whiteSpace=wrap;html=1;aspect=fixed;labelBackgroundColor=#FFFFFF;sketch=0;fontSize=15;strokeColor=#d79b00;fillColor=#ffe6cc;" vertex="1" parent="xgtPqTEJbgmkO_SBP-QT-168">
          <mxGeometry x="20" width="20" height="20" as="geometry" />
        </mxCell>
        <mxCell id="xgtPqTEJbgmkO_SBP-QT-175" value="" style="group" vertex="1" connectable="0" parent="1">
          <mxGeometry x="930" y="510" width="100" height="20" as="geometry" />
        </mxCell>
        <mxCell id="xgtPqTEJbgmkO_SBP-QT-176" value="" style="group" vertex="1" connectable="0" parent="xgtPqTEJbgmkO_SBP-QT-175">
          <mxGeometry x="40" width="60" height="20" as="geometry" />
        </mxCell>
        <mxCell id="xgtPqTEJbgmkO_SBP-QT-177" value="" style="group" vertex="1" connectable="0" parent="xgtPqTEJbgmkO_SBP-QT-176">
          <mxGeometry width="60" height="20" as="geometry" />
        </mxCell>
        <mxCell id="xgtPqTEJbgmkO_SBP-QT-178" value="" style="whiteSpace=wrap;html=1;aspect=fixed;labelBackgroundColor=#FFFFFF;sketch=0;fontSize=15;strokeColor=#d79b00;fillColor=#ffe6cc;" vertex="1" parent="xgtPqTEJbgmkO_SBP-QT-177">
          <mxGeometry x="-20" width="20" height="20" as="geometry" />
        </mxCell>
        <mxCell id="xgtPqTEJbgmkO_SBP-QT-179" value="" style="whiteSpace=wrap;html=1;aspect=fixed;labelBackgroundColor=#FFFFFF;sketch=0;fontSize=15;strokeColor=#d79b00;fillColor=#ffe6cc;" vertex="1" parent="xgtPqTEJbgmkO_SBP-QT-177">
          <mxGeometry width="20" height="20" as="geometry" />
        </mxCell>
        <mxCell id="xgtPqTEJbgmkO_SBP-QT-180" value="" style="whiteSpace=wrap;html=1;aspect=fixed;labelBackgroundColor=#FFFFFF;sketch=0;fontSize=15;strokeColor=#d79b00;fillColor=#ffe6cc;" vertex="1" parent="xgtPqTEJbgmkO_SBP-QT-177">
          <mxGeometry x="20" width="20" height="20" as="geometry" />
        </mxCell>
        <mxCell id="xgtPqTEJbgmkO_SBP-QT-181" value="" style="whiteSpace=wrap;html=1;aspect=fixed;labelBackgroundColor=#FFFFFF;sketch=0;fontSize=15;strokeColor=#d79b00;fillColor=#ffe6cc;" vertex="1" parent="xgtPqTEJbgmkO_SBP-QT-177">
          <mxGeometry x="40" width="20" height="20" as="geometry" />
        </mxCell>
        <mxCell id="xgtPqTEJbgmkO_SBP-QT-182" value="" style="whiteSpace=wrap;html=1;aspect=fixed;labelBackgroundColor=#FFFFFF;sketch=0;fontSize=15;strokeColor=#d79b00;fillColor=#ffe6cc;" vertex="1" parent="xgtPqTEJbgmkO_SBP-QT-175">
          <mxGeometry width="20" height="20" as="geometry" />
        </mxCell>
        <mxCell id="xgtPqTEJbgmkO_SBP-QT-183" value="" style="group" vertex="1" connectable="0" parent="1">
          <mxGeometry x="1060" y="510" width="60" height="20" as="geometry" />
        </mxCell>
        <mxCell id="xgtPqTEJbgmkO_SBP-QT-184" value="" style="whiteSpace=wrap;html=1;aspect=fixed;labelBackgroundColor=#FFFFFF;sketch=0;fontSize=15;strokeColor=#b85450;fillColor=#f8cecc;" vertex="1" parent="xgtPqTEJbgmkO_SBP-QT-183">
          <mxGeometry x="40" width="20" height="20" as="geometry" />
        </mxCell>
        <mxCell id="xgtPqTEJbgmkO_SBP-QT-185" value="" style="whiteSpace=wrap;html=1;aspect=fixed;labelBackgroundColor=#FFFFFF;sketch=0;fontSize=15;strokeColor=#b85450;fillColor=#f8cecc;" vertex="1" parent="xgtPqTEJbgmkO_SBP-QT-183">
          <mxGeometry width="20" height="20" as="geometry" />
        </mxCell>
        <mxCell id="xgtPqTEJbgmkO_SBP-QT-186" value="" style="whiteSpace=wrap;html=1;aspect=fixed;labelBackgroundColor=#FFFFFF;sketch=0;fontSize=15;strokeColor=#b85450;fillColor=#f8cecc;" vertex="1" parent="xgtPqTEJbgmkO_SBP-QT-183">
          <mxGeometry x="20" width="20" height="20" as="geometry" />
        </mxCell>
        <mxCell id="xgtPqTEJbgmkO_SBP-QT-188" value="" style="endArrow=classic;html=1;rounded=0;sketch=0;fontSize=15;fontColor=#000000;strokeColor=#000000;fillColor=#B2C9AB;exitX=0;exitY=0;exitDx=0;exitDy=0;entryX=0.5;entryY=1;entryDx=0;entryDy=0;" edge="1" parent="1" source="xgtPqTEJbgmkO_SBP-QT-170" target="xgtPqTEJbgmkO_SBP-QT-179">
          <mxGeometry width="50" height="50" relative="1" as="geometry">
            <mxPoint x="979.9200000000001" y="555" as="sourcePoint" />
            <mxPoint x="979.9200000000001" y="538" as="targetPoint" />
          </mxGeometry>
        </mxCell>
        <mxCell id="xgtPqTEJbgmkO_SBP-QT-189" value="" style="endArrow=classic;html=1;rounded=0;sketch=0;fontSize=15;fontColor=#000000;strokeColor=#000000;fillColor=#B2C9AB;exitX=0;exitY=0;exitDx=0;exitDy=0;" edge="1" parent="1" source="xgtPqTEJbgmkO_SBP-QT-165">
          <mxGeometry width="50" height="50" relative="1" as="geometry">
            <mxPoint x="1089.8400000000001" y="555" as="sourcePoint" />
            <mxPoint x="1090" y="530" as="targetPoint" />
          </mxGeometry>
        </mxCell>
        <mxCell id="xgtPqTEJbgmkO_SBP-QT-190" value="" style="endArrow=classic;html=1;rounded=0;sketch=0;fontSize=15;fontColor=#000000;strokeColor=#000000;fillColor=#B2C9AB;dashed=1;entryX=0.5;entryY=1;entryDx=0;entryDy=0;" edge="1" parent="1" target="xgtPqTEJbgmkO_SBP-QT-186">
          <mxGeometry width="50" height="50" relative="1" as="geometry">
            <mxPoint x="980" y="560" as="sourcePoint" />
            <mxPoint x="1080" y="540" as="targetPoint" />
          </mxGeometry>
        </mxCell>
        <mxCell id="xgtPqTEJbgmkO_SBP-QT-191" value="" style="group" vertex="1" connectable="0" parent="1">
          <mxGeometry x="930" y="480" width="100" height="20" as="geometry" />
        </mxCell>
        <mxCell id="xgtPqTEJbgmkO_SBP-QT-192" value="" style="whiteSpace=wrap;html=1;aspect=fixed;labelBackgroundColor=#FFFFFF;sketch=0;fontSize=15;strokeColor=#d79b00;fillColor=#ffe6cc;" vertex="1" parent="1">
          <mxGeometry x="960" y="460" width="20" height="20" as="geometry" />
        </mxCell>
        <mxCell id="xgtPqTEJbgmkO_SBP-QT-193" value="" style="whiteSpace=wrap;html=1;aspect=fixed;labelBackgroundColor=#FFFFFF;sketch=0;fontSize=15;strokeColor=#d79b00;fillColor=#ffe6cc;" vertex="1" parent="1">
          <mxGeometry x="980" y="460" width="20" height="20" as="geometry" />
        </mxCell>
        <mxCell id="xgtPqTEJbgmkO_SBP-QT-194" value="" style="whiteSpace=wrap;html=1;aspect=fixed;labelBackgroundColor=#FFFFFF;sketch=0;fontSize=15;strokeColor=#d79b00;fillColor=#ffe6cc;" vertex="1" parent="1">
          <mxGeometry x="1000" y="460" width="20" height="20" as="geometry" />
        </mxCell>
        <mxCell id="xgtPqTEJbgmkO_SBP-QT-195" value="" style="whiteSpace=wrap;html=1;aspect=fixed;labelBackgroundColor=#FFFFFF;sketch=0;fontSize=15;strokeColor=#d79b00;fillColor=#ffe6cc;" vertex="1" parent="1">
          <mxGeometry x="940" y="460" width="20" height="20" as="geometry" />
        </mxCell>
        <mxCell id="xgtPqTEJbgmkO_SBP-QT-196" value="" style="endArrow=classic;html=1;rounded=0;sketch=0;fontSize=15;fontColor=#000000;strokeColor=#000000;fillColor=#B2C9AB;exitX=0.5;exitY=0;exitDx=0;exitDy=0;entryX=0;entryY=1;entryDx=0;entryDy=0;" edge="1" parent="1" source="xgtPqTEJbgmkO_SBP-QT-179" target="xgtPqTEJbgmkO_SBP-QT-193">
          <mxGeometry width="50" height="50" relative="1" as="geometry">
            <mxPoint x="1040" y="470" as="sourcePoint" />
            <mxPoint x="1040" y="440" as="targetPoint" />
          </mxGeometry>
        </mxCell>
        <mxCell id="xgtPqTEJbgmkO_SBP-QT-197" value="" style="group" vertex="1" connectable="0" parent="1">
          <mxGeometry x="1060" y="460" width="60" height="20" as="geometry" />
        </mxCell>
        <mxCell id="xgtPqTEJbgmkO_SBP-QT-198" value="" style="whiteSpace=wrap;html=1;aspect=fixed;labelBackgroundColor=#FFFFFF;sketch=0;fontSize=15;strokeColor=#b85450;fillColor=#f8cecc;" vertex="1" parent="xgtPqTEJbgmkO_SBP-QT-197">
          <mxGeometry x="40" width="20" height="20" as="geometry" />
        </mxCell>
        <mxCell id="xgtPqTEJbgmkO_SBP-QT-199" value="" style="whiteSpace=wrap;html=1;aspect=fixed;labelBackgroundColor=#FFFFFF;sketch=0;fontSize=15;strokeColor=#b85450;fillColor=#f8cecc;" vertex="1" parent="xgtPqTEJbgmkO_SBP-QT-197">
          <mxGeometry width="20" height="20" as="geometry" />
        </mxCell>
        <mxCell id="xgtPqTEJbgmkO_SBP-QT-200" value="" style="whiteSpace=wrap;html=1;aspect=fixed;labelBackgroundColor=#FFFFFF;sketch=0;fontSize=15;strokeColor=#b85450;fillColor=#f8cecc;" vertex="1" parent="xgtPqTEJbgmkO_SBP-QT-197">
          <mxGeometry x="20" width="20" height="20" as="geometry" />
        </mxCell>
        <mxCell id="xgtPqTEJbgmkO_SBP-QT-201" value="" style="endArrow=classic;html=1;rounded=0;sketch=0;fontSize=15;fontColor=#000000;strokeColor=#000000;fillColor=#B2C9AB;exitX=0.5;exitY=0;exitDx=0;exitDy=0;entryX=0.5;entryY=1;entryDx=0;entryDy=0;" edge="1" parent="1" source="xgtPqTEJbgmkO_SBP-QT-186" target="xgtPqTEJbgmkO_SBP-QT-200">
          <mxGeometry width="50" height="50" relative="1" as="geometry">
            <mxPoint x="1149.83" y="510" as="sourcePoint" />
            <mxPoint x="1149.83" y="480" as="targetPoint" />
          </mxGeometry>
        </mxCell>
        <mxCell id="xgtPqTEJbgmkO_SBP-QT-203" value="" style="endArrow=classic;html=1;rounded=0;sketch=0;fontSize=15;fontColor=#000000;strokeColor=#000000;fillColor=#B2C9AB;exitX=0;exitY=0;exitDx=0;exitDy=0;entryX=0.5;entryY=1;entryDx=0;entryDy=0;" edge="1" parent="1" source="xgtPqTEJbgmkO_SBP-QT-152" target="xgtPqTEJbgmkO_SBP-QT-231">
          <mxGeometry width="50" height="50" relative="1" as="geometry">
            <mxPoint x="779.43" y="420" as="sourcePoint" />
            <mxPoint x="930" y="450" as="targetPoint" />
            <Array as="points">
              <mxPoint x="730" y="440" />
            </Array>
          </mxGeometry>
        </mxCell>
        <mxCell id="xgtPqTEJbgmkO_SBP-QT-204" value="" style="endArrow=classic;html=1;rounded=0;sketch=0;fontSize=15;fontColor=#000000;strokeColor=#000000;fillColor=#B2C9AB;exitX=0;exitY=0;exitDx=0;exitDy=0;entryX=0.5;entryY=1;entryDx=0;entryDy=0;" edge="1" parent="1" source="xgtPqTEJbgmkO_SBP-QT-193" target="xgtPqTEJbgmkO_SBP-QT-231">
          <mxGeometry width="50" height="50" relative="1" as="geometry">
            <mxPoint x="980" y="420" as="sourcePoint" />
            <mxPoint x="940" y="440" as="targetPoint" />
          </mxGeometry>
        </mxCell>
        <mxCell id="xgtPqTEJbgmkO_SBP-QT-206" value="PCTR" style="text;html=1;align=center;verticalAlign=middle;resizable=0;points=[];autosize=1;strokeColor=none;fillColor=none;fontSize=18;fontColor=#000000;" vertex="1" parent="1">
          <mxGeometry x="910" y="370" width="60" height="30" as="geometry" />
        </mxCell>
        <mxCell id="xgtPqTEJbgmkO_SBP-QT-211" value="Level 4" style="text;html=1;align=center;verticalAlign=middle;resizable=0;points=[];autosize=1;strokeColor=none;fillColor=none;fontSize=18;fontColor=#000000;dashed=1;" vertex="1" parent="1">
          <mxGeometry x="590" y="410" width="80" height="30" as="geometry" />
        </mxCell>
        <mxCell id="xgtPqTEJbgmkO_SBP-QT-212" value="" style="endArrow=classic;html=1;rounded=0;sketch=0;fontSize=15;fontColor=#000000;strokeColor=#000000;fillColor=#B2C9AB;dashed=1;entryX=0;entryY=1;entryDx=0;entryDy=0;" edge="1" parent="1" target="xgtPqTEJbgmkO_SBP-QT-208">
          <mxGeometry width="50" height="50" relative="1" as="geometry">
            <mxPoint x="730" y="460" as="sourcePoint" />
            <mxPoint x="885" y="350" as="targetPoint" />
          </mxGeometry>
        </mxCell>
        <mxCell id="xgtPqTEJbgmkO_SBP-QT-217" value="" style="endArrow=classic;html=1;rounded=0;sketch=0;fontSize=15;fontColor=#000000;strokeColor=#000000;fillColor=#B2C9AB;exitX=0.5;exitY=0;exitDx=0;exitDy=0;entryX=0.5;entryY=1;entryDx=0;entryDy=0;" edge="1" parent="1" source="xgtPqTEJbgmkO_SBP-QT-160" target="xgtPqTEJbgmkO_SBP-QT-216">
          <mxGeometry width="50" height="50" relative="1" as="geometry">
            <mxPoint x="899.86" y="495" as="sourcePoint" />
            <mxPoint x="899.86" y="465" as="targetPoint" />
          </mxGeometry>
        </mxCell>
        <mxCell id="xgtPqTEJbgmkO_SBP-QT-218" value="" style="whiteSpace=wrap;html=1;aspect=fixed;labelBackgroundColor=#FFFFFF;sketch=0;fontSize=15;strokeColor=#d79b00;fillColor=#ffe6cc;" vertex="1" parent="1">
          <mxGeometry x="1000" y="410" width="20" height="20" as="geometry" />
        </mxCell>
        <mxCell id="xgtPqTEJbgmkO_SBP-QT-219" value="" style="whiteSpace=wrap;html=1;aspect=fixed;labelBackgroundColor=#FFFFFF;sketch=0;fontSize=15;strokeColor=#d79b00;fillColor=#ffe6cc;" vertex="1" parent="1">
          <mxGeometry x="1020" y="410" width="20" height="20" as="geometry" />
        </mxCell>
        <mxCell id="xgtPqTEJbgmkO_SBP-QT-220" value="" style="whiteSpace=wrap;html=1;aspect=fixed;labelBackgroundColor=#FFFFFF;sketch=0;fontSize=15;strokeColor=#d79b00;fillColor=#ffe6cc;" vertex="1" parent="1">
          <mxGeometry x="1040" y="410" width="20" height="20" as="geometry" />
        </mxCell>
        <mxCell id="xgtPqTEJbgmkO_SBP-QT-221" value="" style="whiteSpace=wrap;html=1;aspect=fixed;labelBackgroundColor=#FFFFFF;sketch=0;fontSize=15;strokeColor=#d79b00;fillColor=#ffe6cc;" vertex="1" parent="1">
          <mxGeometry x="980" y="410" width="20" height="20" as="geometry" />
        </mxCell>
        <mxCell id="xgtPqTEJbgmkO_SBP-QT-222" value="" style="group" vertex="1" connectable="0" parent="1">
          <mxGeometry x="1060" y="410" width="60" height="20" as="geometry" />
        </mxCell>
        <mxCell id="xgtPqTEJbgmkO_SBP-QT-223" value="" style="whiteSpace=wrap;html=1;aspect=fixed;labelBackgroundColor=#FFFFFF;sketch=0;fontSize=15;strokeColor=#b85450;fillColor=#f8cecc;" vertex="1" parent="xgtPqTEJbgmkO_SBP-QT-222">
          <mxGeometry x="40" width="20" height="20" as="geometry" />
        </mxCell>
        <mxCell id="xgtPqTEJbgmkO_SBP-QT-224" value="" style="whiteSpace=wrap;html=1;aspect=fixed;labelBackgroundColor=#FFFFFF;sketch=0;fontSize=15;strokeColor=#b85450;fillColor=#f8cecc;" vertex="1" parent="xgtPqTEJbgmkO_SBP-QT-222">
          <mxGeometry width="20" height="20" as="geometry" />
        </mxCell>
        <mxCell id="xgtPqTEJbgmkO_SBP-QT-225" value="" style="whiteSpace=wrap;html=1;aspect=fixed;labelBackgroundColor=#FFFFFF;sketch=0;fontSize=15;strokeColor=#b85450;fillColor=#f8cecc;" vertex="1" parent="xgtPqTEJbgmkO_SBP-QT-222">
          <mxGeometry x="20" width="20" height="20" as="geometry" />
        </mxCell>
        <mxCell id="xgtPqTEJbgmkO_SBP-QT-227" value="" style="endArrow=classic;html=1;rounded=0;sketch=0;fontSize=15;fontColor=#000000;strokeColor=#000000;fillColor=#B2C9AB;exitX=0.5;exitY=0;exitDx=0;exitDy=0;entryX=0.5;entryY=1;entryDx=0;entryDy=0;" edge="1" parent="1" source="xgtPqTEJbgmkO_SBP-QT-200" target="xgtPqTEJbgmkO_SBP-QT-225">
          <mxGeometry width="50" height="50" relative="1" as="geometry">
            <mxPoint x="1160" y="455" as="sourcePoint" />
            <mxPoint x="1160" y="425" as="targetPoint" />
          </mxGeometry>
        </mxCell>
        <mxCell id="xgtPqTEJbgmkO_SBP-QT-228" value="" style="endArrow=classic;html=1;rounded=0;sketch=0;fontSize=15;fontColor=#000000;strokeColor=#000000;fillColor=#B2C9AB;dashed=1;entryX=0;entryY=1;entryDx=0;entryDy=0;exitX=0;exitY=0;exitDx=0;exitDy=0;" edge="1" parent="1" source="xgtPqTEJbgmkO_SBP-QT-193" target="xgtPqTEJbgmkO_SBP-QT-219">
          <mxGeometry width="50" height="50" relative="1" as="geometry">
            <mxPoint x="1100" y="495" as="sourcePoint" />
            <mxPoint x="1210" y="465" as="targetPoint" />
          </mxGeometry>
        </mxCell>
        <mxCell id="xgtPqTEJbgmkO_SBP-QT-229" value="" style="endArrow=classic;html=1;rounded=0;sketch=0;fontSize=15;fontColor=#000000;strokeColor=#000000;fillColor=#B2C9AB;dashed=1;exitX=0.5;exitY=0;exitDx=0;exitDy=0;" edge="1" parent="1" source="xgtPqTEJbgmkO_SBP-QT-94">
          <mxGeometry width="50" height="50" relative="1" as="geometry">
            <mxPoint x="740" y="570" as="sourcePoint" />
            <mxPoint x="840" y="480" as="targetPoint" />
          </mxGeometry>
        </mxCell>
        <mxCell id="xgtPqTEJbgmkO_SBP-QT-230" value="" style="endArrow=classic;html=1;rounded=0;sketch=0;fontSize=15;fontColor=#000000;strokeColor=#000000;fillColor=#B2C9AB;dashed=1;" edge="1" parent="1">
          <mxGeometry width="50" height="50" relative="1" as="geometry">
            <mxPoint x="980" y="510" as="sourcePoint" />
            <mxPoint x="1090" y="480" as="targetPoint" />
          </mxGeometry>
        </mxCell>
        <mxCell id="xgtPqTEJbgmkO_SBP-QT-231" value="" style="shape=sumEllipse;perimeter=ellipsePerimeter;whiteSpace=wrap;html=1;backgroundOutline=1;labelBackgroundColor=#FFFFFF;sketch=0;fontSize=18;strokeColor=#36393d;fillColor=#cce5ff;" vertex="1" parent="1">
          <mxGeometry x="920" y="405" width="30" height="30" as="geometry" />
        </mxCell>
        <mxCell id="xgtPqTEJbgmkO_SBP-QT-232" value="" style="shape=sumEllipse;perimeter=ellipsePerimeter;whiteSpace=wrap;html=1;backgroundOutline=1;labelBackgroundColor=#FFFFFF;sketch=0;fontSize=18;strokeColor=#36393d;fillColor=#cdeb8b;" vertex="1" parent="1">
          <mxGeometry x="780" y="310" width="30" height="30" as="geometry" />
        </mxCell>
        <mxCell id="xgtPqTEJbgmkO_SBP-QT-233" value="" style="shape=sumEllipse;perimeter=ellipsePerimeter;whiteSpace=wrap;html=1;backgroundOutline=1;labelBackgroundColor=#FFFFFF;sketch=0;fontSize=18;strokeColor=#36393d;fillColor=#cdeb8b;" vertex="1" parent="1">
          <mxGeometry x="355" y="310" width="30" height="30" as="geometry" />
        </mxCell>
        <mxCell id="xgtPqTEJbgmkO_SBP-QT-234" value="" style="endArrow=classic;html=1;rounded=0;sketch=0;fontSize=18;fontColor=#000000;strokeColor=#000000;fillColor=#B2C9AB;exitX=0.25;exitY=0;exitDx=0;exitDy=0;" edge="1" parent="1" source="xgtPqTEJbgmkO_SBP-QT-209">
          <mxGeometry width="50" height="50" relative="1" as="geometry">
            <mxPoint x="970" y="340" as="sourcePoint" />
            <mxPoint x="795" y="340" as="targetPoint" />
          </mxGeometry>
        </mxCell>
        <mxCell id="xgtPqTEJbgmkO_SBP-QT-235" value="" style="endArrow=classic;html=1;rounded=0;sketch=0;fontSize=18;fontColor=#000000;strokeColor=#000000;fillColor=#B2C9AB;exitX=0.25;exitY=0;exitDx=0;exitDy=0;entryX=1;entryY=0.5;entryDx=0;entryDy=0;" edge="1" parent="1" target="xgtPqTEJbgmkO_SBP-QT-232">
          <mxGeometry width="50" height="50" relative="1" as="geometry">
            <mxPoint x="1049.58" y="410" as="sourcePoint" />
            <mxPoint x="1049.58" y="340" as="targetPoint" />
            <Array as="points">
              <mxPoint x="1050" y="325" />
            </Array>
          </mxGeometry>
        </mxCell>
        <mxCell id="xgtPqTEJbgmkO_SBP-QT-238" value="" style="group" vertex="1" connectable="0" parent="1">
          <mxGeometry x="730" y="410" width="140" height="20" as="geometry" />
        </mxCell>
        <mxCell id="xgtPqTEJbgmkO_SBP-QT-213" value="" style="group" vertex="1" connectable="0" parent="xgtPqTEJbgmkO_SBP-QT-238">
          <mxGeometry x="80" width="60" height="20" as="geometry" />
        </mxCell>
        <mxCell id="xgtPqTEJbgmkO_SBP-QT-214" value="" style="whiteSpace=wrap;html=1;aspect=fixed;labelBackgroundColor=#FFFFFF;sketch=0;fontSize=15;strokeColor=#b85450;fillColor=#f8cecc;" vertex="1" parent="xgtPqTEJbgmkO_SBP-QT-213">
          <mxGeometry x="40" width="20" height="20" as="geometry" />
        </mxCell>
        <mxCell id="xgtPqTEJbgmkO_SBP-QT-215" value="" style="whiteSpace=wrap;html=1;aspect=fixed;labelBackgroundColor=#FFFFFF;sketch=0;fontSize=15;strokeColor=#b85450;fillColor=#f8cecc;" vertex="1" parent="xgtPqTEJbgmkO_SBP-QT-213">
          <mxGeometry width="20" height="20" as="geometry" />
        </mxCell>
        <mxCell id="xgtPqTEJbgmkO_SBP-QT-216" value="" style="whiteSpace=wrap;html=1;aspect=fixed;labelBackgroundColor=#FFFFFF;sketch=0;fontSize=15;strokeColor=#b85450;fillColor=#f8cecc;" vertex="1" parent="xgtPqTEJbgmkO_SBP-QT-213">
          <mxGeometry x="20" width="20" height="20" as="geometry" />
        </mxCell>
        <mxCell id="xgtPqTEJbgmkO_SBP-QT-226" value="" style="group" vertex="1" connectable="0" parent="xgtPqTEJbgmkO_SBP-QT-238">
          <mxGeometry width="80" height="20" as="geometry" />
        </mxCell>
        <mxCell id="xgtPqTEJbgmkO_SBP-QT-207" value="" style="whiteSpace=wrap;html=1;aspect=fixed;labelBackgroundColor=#FFFFFF;sketch=0;fontSize=15;strokeColor=#d79b00;fillColor=#ffe6cc;" vertex="1" parent="xgtPqTEJbgmkO_SBP-QT-226">
          <mxGeometry x="20" width="20" height="20" as="geometry" />
        </mxCell>
        <mxCell id="xgtPqTEJbgmkO_SBP-QT-208" value="" style="whiteSpace=wrap;html=1;aspect=fixed;labelBackgroundColor=#FFFFFF;sketch=0;fontSize=15;strokeColor=#d79b00;fillColor=#ffe6cc;" vertex="1" parent="xgtPqTEJbgmkO_SBP-QT-226">
          <mxGeometry x="40" width="20" height="20" as="geometry" />
        </mxCell>
        <mxCell id="xgtPqTEJbgmkO_SBP-QT-209" value="" style="whiteSpace=wrap;html=1;aspect=fixed;labelBackgroundColor=#FFFFFF;sketch=0;fontSize=15;strokeColor=#d79b00;fillColor=#ffe6cc;" vertex="1" parent="xgtPqTEJbgmkO_SBP-QT-226">
          <mxGeometry x="60" width="20" height="20" as="geometry" />
        </mxCell>
        <mxCell id="xgtPqTEJbgmkO_SBP-QT-210" value="" style="whiteSpace=wrap;html=1;aspect=fixed;labelBackgroundColor=#FFFFFF;sketch=0;fontSize=15;strokeColor=#d79b00;fillColor=#ffe6cc;" vertex="1" parent="xgtPqTEJbgmkO_SBP-QT-226">
          <mxGeometry width="20" height="20" as="geometry" />
        </mxCell>
        <mxCell id="xgtPqTEJbgmkO_SBP-QT-236" value="" style="whiteSpace=wrap;html=1;aspect=fixed;labelBackgroundColor=#FFFFFF;sketch=0;fontSize=15;strokeColor=#d79b00;fillColor=#ffe6cc;" vertex="1" parent="xgtPqTEJbgmkO_SBP-QT-226">
          <mxGeometry width="20" height="20" as="geometry" />
        </mxCell>
        <mxCell id="xgtPqTEJbgmkO_SBP-QT-237" value="" style="whiteSpace=wrap;html=1;aspect=fixed;labelBackgroundColor=#FFFFFF;sketch=0;fontSize=15;strokeColor=#d79b00;fillColor=#ffe6cc;" vertex="1" parent="xgtPqTEJbgmkO_SBP-QT-226">
          <mxGeometry x="20" width="20" height="20" as="geometry" />
        </mxCell>
      </root>
    </mxGraphModel>
  </diagram>
</mxfile>
